<svg width="400" height="36" viewBox="0 0 400 36" fill="none" xmlns="http://www.w3.org/2000/svg">
<path d="M11.6055 32.8812C9.49045 32.8812 7.59511 32.5378 5.91952 31.8511C4.24394 31.1644 2.89797 30.148 1.88163 28.8021C0.89276 27.4561 0.370855 25.8355 0.315918 23.9401H7.81486C7.92474 25.0114 8.29556 25.8355 8.92734 26.4123C9.55912 26.9617 10.3832 27.2364 11.3995 27.2364C12.4433 27.2364 13.2674 27.0029 13.8717 26.5359C14.476 26.0415 14.7782 25.3685 14.7782 24.517C14.7782 23.8028 14.531 23.2122 14.0365 22.7452C13.5695 22.2783 12.979 21.8937 12.2648 21.5916C11.5781 21.2894 10.5892 20.946 9.29817 20.5615C7.4303 19.9846 5.90579 19.4078 4.72464 18.831C3.54349 18.2541 2.52715 17.4026 1.67562 16.2764C0.824088 15.1502 0.398324 13.6806 0.398324 11.8676C0.398324 9.17572 1.37346 7.07437 3.32374 5.56359C5.27401 4.02535 7.81486 3.25622 10.9463 3.25622C14.1327 3.25622 16.701 4.02535 18.6512 5.56359C20.6015 7.07437 21.6453 9.18945 21.7827 11.9089H14.1601C14.1052 10.9749 13.7618 10.247 13.13 9.72509C12.4983 9.17572 11.6879 8.90103 10.6991 8.90103C9.84754 8.90103 9.16083 9.13452 8.63892 9.60148C8.11702 10.041 7.85607 10.6865 7.85607 11.538C7.85607 12.472 8.29556 13.1999 9.17456 13.7218C10.0536 14.2437 11.427 14.8068 13.2949 15.4111C15.1627 16.0429 16.6735 16.6472 17.8272 17.224C19.0083 17.8009 20.0247 18.6387 20.8762 19.7374C21.7277 20.8362 22.1535 22.2508 22.1535 23.9813C22.1535 25.6294 21.7277 27.1265 20.8762 28.4725C20.0522 29.8184 18.8435 30.8897 17.2503 31.6863C15.6572 32.4829 13.7756 32.8812 11.6055 32.8812Z" fill="#FFC744"/>
<path d="M43.1355 32.9224C40.8831 32.9224 38.8504 32.4417 37.0374 31.4803C35.252 30.5189 33.8373 29.1454 32.7935 27.36C31.7772 25.5745 31.269 23.4869 31.269 21.0971C31.269 18.7348 31.7909 16.6609 32.8347 14.8755C33.8785 13.0625 35.3069 11.6754 37.1198 10.714C38.9328 9.75256 40.9655 9.27186 43.2179 9.27186C45.4703 9.27186 47.503 9.75256 49.3159 10.714C51.1289 11.6754 52.5572 13.0625 53.601 14.8755C54.6449 16.6609 55.1668 18.7348 55.1668 21.0971C55.1668 23.4594 54.6311 25.547 53.5598 27.36C52.516 29.1454 51.0739 30.5189 49.2335 31.4803C47.4206 32.4417 45.3879 32.9224 43.1355 32.9224ZM43.1355 26.8243C44.4814 26.8243 45.6214 26.3299 46.5553 25.341C47.5167 24.3522 47.9974 22.9375 47.9974 21.0971C47.9974 19.2567 47.5305 17.8421 46.5965 16.8532C45.6901 15.8643 44.5639 15.3699 43.2179 15.3699C41.8445 15.3699 40.7045 15.8643 39.798 16.8532C38.8916 17.8146 38.4383 19.2292 38.4383 21.0971C38.4383 22.9375 38.8778 24.3522 39.7568 25.341C40.6633 26.3299 41.7895 26.8243 43.1355 26.8243Z" fill="#FFC744"/>
<path d="M87.7879 9.60148V32.5928H80.7422V29.4613C80.028 30.4777 79.0529 31.3017 77.8168 31.9335C76.6082 32.5378 75.2622 32.84 73.7789 32.84C72.0209 32.84 70.4689 32.4554 69.123 31.6863C67.777 30.8897 66.7332 29.7497 65.9916 28.2664C65.2499 26.7831 64.8791 25.0389 64.8791 23.0337V9.60148H71.8836V22.086C71.8836 23.6242 72.2819 24.8191 73.0785 25.6707C73.8751 26.5222 74.9463 26.9479 76.2923 26.9479C77.6657 26.9479 78.7507 26.5222 79.5473 25.6707C80.3439 24.8191 80.7422 23.6242 80.7422 22.086V9.60148H87.7879Z" fill="#FFC744"/>
<path d="M113.038 9.35427C115.73 9.35427 117.873 10.2333 119.466 11.9913C121.087 13.7218 121.897 16.1116 121.897 19.1606V32.5928H114.892V20.1082C114.892 18.57 114.494 17.3751 113.698 16.5236C112.901 15.6721 111.83 15.2463 110.484 15.2463C109.138 15.2463 108.066 15.6721 107.27 16.5236C106.473 17.3751 106.075 18.57 106.075 20.1082V32.5928H99.0293V9.60148H106.075V12.6505C106.789 11.6342 107.751 10.8376 108.959 10.2607C110.168 9.65642 111.528 9.35427 113.038 9.35427Z" fill="#FFC744"/>
<path d="M131.573 21.0559C131.573 18.6936 132.012 16.6197 132.891 14.8343C133.798 13.0488 135.02 11.6754 136.558 10.714C138.096 9.75256 139.813 9.27186 141.708 9.27186C143.219 9.27186 144.593 9.58775 145.829 10.2195C147.092 10.8513 148.081 11.7028 148.795 12.7741V2.10254H155.841V32.5928H148.795V29.2965C148.136 30.3953 147.188 31.2743 145.952 31.9335C144.744 32.5928 143.329 32.9224 141.708 32.9224C139.813 32.9224 138.096 32.4417 136.558 31.4803C135.02 30.4914 133.798 29.1042 132.891 27.3188C132.012 25.5058 131.573 23.4182 131.573 21.0559ZM148.795 21.0971C148.795 19.3391 148.301 17.952 147.312 16.9356C146.351 15.9193 145.17 15.4111 143.769 15.4111C142.368 15.4111 141.173 15.9193 140.184 16.9356C139.223 17.9245 138.742 19.2979 138.742 21.0559C138.742 22.8139 139.223 24.2148 140.184 25.2586C141.173 26.275 142.368 26.7831 143.769 26.7831C145.17 26.7831 146.351 26.275 147.312 25.2586C148.301 24.2423 148.795 22.8551 148.795 21.0971Z" fill="#FFC744"/>
<path d="M235.889 32.8811C233.774 32.8811 231.879 32.5378 230.203 31.851C228.527 31.1643 227.181 30.148 226.165 28.802C225.176 27.4561 224.654 25.8354 224.599 23.9401H232.098C232.208 25.0113 232.579 25.8354 233.211 26.4122C233.843 26.9616 234.667 27.2363 235.683 27.2363C236.727 27.2363 237.551 27.0028 238.155 26.5359C238.759 26.0414 239.062 25.3684 239.062 24.5169C239.062 23.8027 238.814 23.2121 238.32 22.7452C237.853 22.2782 237.262 21.8936 236.548 21.5915C235.862 21.2893 234.873 20.946 233.582 20.5614C231.714 19.9846 230.189 19.4077 229.008 18.8309C227.827 18.2541 226.811 17.4025 225.959 16.2763C225.108 15.1501 224.682 13.6805 224.682 11.8676C224.682 9.17566 225.657 7.07431 227.607 5.56353C229.557 4.02529 232.098 3.25616 235.23 3.25616C238.416 3.25616 240.984 4.02529 242.935 5.56353C244.885 7.07431 245.929 9.1894 246.066 11.9088H238.444C238.389 10.9749 238.045 10.2469 237.414 9.72504C236.782 9.17566 235.971 8.90097 234.983 8.90097C234.131 8.90097 233.444 9.13446 232.922 9.60143C232.4 10.0409 232.14 10.6864 232.14 11.538C232.14 12.4719 232.579 13.1998 233.458 13.7217C234.337 14.2436 235.71 14.8067 237.578 15.411C239.446 16.0428 240.957 16.6471 242.111 17.224C243.292 17.8008 244.308 18.6386 245.16 19.7374C246.011 20.8361 246.437 22.2507 246.437 23.9813C246.437 25.6294 246.011 27.1264 245.16 28.4724C244.336 29.8184 243.127 30.8896 241.534 31.6862C239.941 32.4828 238.059 32.8811 235.889 32.8811Z" fill="#FFC744"/>
<path d="M267.419 32.9223C265.167 32.9223 263.134 32.4416 261.321 31.4802C259.535 30.5188 258.121 29.1454 257.077 27.3599C256.061 25.5745 255.553 23.4868 255.553 21.0971C255.553 18.7348 256.074 16.6609 257.118 14.8754C258.162 13.0625 259.59 11.6753 261.403 10.7139C263.216 9.7525 265.249 9.2718 267.501 9.2718C269.754 9.2718 271.786 9.7525 273.599 10.7139C275.412 11.6753 276.841 13.0625 277.885 14.8754C278.928 16.6609 279.45 18.7348 279.45 21.0971C279.45 23.4594 278.915 25.547 277.843 27.3599C276.8 29.1454 275.357 30.5188 273.517 31.4802C271.704 32.4416 269.671 32.9223 267.419 32.9223ZM267.419 26.8243C268.765 26.8243 269.905 26.3298 270.839 25.341C271.8 24.3521 272.281 22.9375 272.281 21.0971C272.281 19.2567 271.814 17.842 270.88 16.8531C269.974 15.8643 268.847 15.3698 267.501 15.3698C266.128 15.3698 264.988 15.8643 264.082 16.8531C263.175 17.8146 262.722 19.2292 262.722 21.0971C262.722 22.9375 263.161 24.3521 264.04 25.341C264.947 26.3298 266.073 26.8243 267.419 26.8243Z" fill="#FFC744"/>
<path d="M312.071 9.60143V32.5927H305.026V29.4613C304.312 30.4776 303.336 31.3017 302.1 31.9334C300.892 32.5378 299.546 32.8399 298.062 32.8399C296.304 32.8399 294.752 32.4554 293.406 31.6862C292.061 30.8896 291.017 29.7497 290.275 28.2664C289.533 26.7831 289.163 25.0388 289.163 23.0336V9.60143H296.167V22.0859C296.167 23.6242 296.565 24.8191 297.362 25.6706C298.159 26.5221 299.23 26.9479 300.576 26.9479C301.949 26.9479 303.034 26.5221 303.831 25.6706C304.627 24.8191 305.026 23.6242 305.026 22.0859V9.60143H312.071Z" fill="#FFC744"/>
<path d="M330.358 13.4333C331.183 12.1697 332.213 11.1809 333.449 10.4667C334.685 9.72503 336.058 9.35421 337.569 9.35421V16.8119H335.632C333.874 16.8119 332.556 17.1965 331.677 17.9656C330.798 18.7073 330.358 20.0258 330.358 21.9211V32.5927H323.313V9.60143H330.358V13.4333Z" fill="#FFC744"/>
<path d="M345.716 21.0971C345.716 18.7073 346.197 16.6197 347.158 14.8342C348.147 13.0487 349.507 11.6753 351.237 10.7139C352.995 9.7525 355.001 9.2718 357.253 9.2718C360.137 9.2718 362.541 10.0272 364.464 11.538C366.414 13.0487 367.691 15.1776 368.295 17.9244H360.797C360.165 16.1664 358.942 15.2874 357.129 15.2874C355.838 15.2874 354.808 15.7956 354.039 16.8119C353.27 17.8008 352.886 19.2292 352.886 21.0971C352.886 22.9649 353.27 24.407 354.039 25.4234C354.808 26.4122 355.838 26.9067 357.129 26.9067C358.942 26.9067 360.165 26.0277 360.797 24.2697H368.295C367.691 26.9616 366.414 29.0767 364.464 30.615C362.513 32.1532 360.11 32.9223 357.253 32.9223C355.001 32.9223 352.995 32.4416 351.237 31.4802C349.507 30.5188 348.147 29.1454 347.158 27.3599C346.197 25.5745 345.716 23.4868 345.716 21.0971Z" fill="#FFC744"/>
<path d="M399.917 20.7262C399.917 21.3855 399.876 22.0722 399.794 22.7864H383.848C383.958 24.2148 384.411 25.3135 385.208 26.0826C386.032 26.8243 387.035 27.1951 388.216 27.1951C389.974 27.1951 391.196 26.4534 391.883 24.9701H399.382C398.997 26.4809 398.297 27.8406 397.28 29.0492C396.292 30.2579 395.042 31.2055 393.531 31.8922C392.02 32.579 390.331 32.9223 388.463 32.9223C386.211 32.9223 384.205 32.4416 382.447 31.4802C380.689 30.5188 379.316 29.1454 378.327 27.3599C377.338 25.5745 376.844 23.4868 376.844 21.0971C376.844 18.7073 377.325 16.6197 378.286 14.8342C379.275 13.0487 380.648 11.6753 382.406 10.7139C384.164 9.7525 386.183 9.2718 388.463 9.2718C390.688 9.2718 392.666 9.73877 394.396 10.6727C396.127 11.6066 397.473 12.9389 398.434 14.6694C399.423 16.3999 399.917 18.4189 399.917 20.7262ZM392.707 18.8721C392.707 17.6635 392.295 16.7021 391.471 15.9879C390.647 15.2737 389.617 14.9166 388.381 14.9166C387.199 14.9166 386.197 15.26 385.373 15.9467C384.576 16.6334 384.082 17.6085 383.89 18.8721H392.707Z" fill="#FFC744"/>
<path d="M215.104 14.2683H209.177V8.03415C209.177 7.0628 208.392 6.27805 207.421 6.27805H190.134L183.697 0.120732C183.615 0.0440547 183.508 0.000961993 183.395 0H169.445C168.474 0 167.689 0.784756 167.689 1.7561V34.2439C167.689 35.2152 168.474 36 169.445 36H207.75C208.464 36 209.111 35.5665 209.38 34.9024L216.734 16.6829C216.816 16.4744 216.86 16.2494 216.86 16.0244C216.86 15.053 216.075 14.2683 215.104 14.2683ZM205.226 14.2683H177.238C176.525 14.2683 175.877 14.7018 175.608 15.3659L171.641 25.2V3.95122H181.985L188.548 10.2293H205.226V14.2683Z" fill="#FFC744"/>
<path d="M190.331 16.0031C190.573 16.0433 190.751 16.1484 190.832 16.2998C190.912 16.4513 190.891 16.6393 190.772 16.8307L181.64 33.0575C181.602 33.1736 181.526 33.2925 181.417 33.4058C181.309 33.5192 181.171 33.6243 181.012 33.714C180.854 33.8037 180.679 33.8757 180.5 33.9251C180.321 33.9745 180.142 34.0001 179.976 34.0001C179.809 34.0001 179.659 33.9745 179.535 33.9251C179.412 33.8757 179.318 33.8037 179.261 33.714C179.204 33.6243 179.184 33.5192 179.203 33.4058C179.222 33.2925 179.28 33.1736 179.372 33.0575L188.504 16.8307C188.565 16.7166 188.659 16.6033 188.78 16.498C188.902 16.3928 189.049 16.298 189.21 16.2199C189.372 16.1418 189.545 16.0822 189.719 16.0448C189.893 16.0074 190.063 15.9932 190.218 16.0031C190.257 16.0018 190.294 16.0018 190.331 16.0031ZM204.364 16.8572C204.607 16.8973 204.784 17.0024 204.865 17.1539C204.946 17.3053 204.925 17.4934 204.806 17.6847L196.635 32.2035C196.596 32.3196 196.52 32.4384 196.412 32.5518C196.304 32.6651 196.166 32.7703 196.007 32.86C195.849 32.9496 195.674 33.0216 195.495 33.071C195.316 33.1204 195.137 33.146 194.97 33.146C194.804 33.146 194.654 33.1204 194.53 33.071C194.407 33.0216 194.313 32.9496 194.256 32.86C194.198 32.7703 194.179 32.6651 194.198 32.5518C194.217 32.4384 194.275 32.3196 194.367 32.2035L202.538 17.6847C202.598 17.5707 202.692 17.4573 202.814 17.3521C202.936 17.2468 203.082 17.1521 203.244 17.074C203.406 16.9959 203.579 16.9362 203.753 16.8988C203.926 16.8615 204.096 16.8473 204.252 16.8572C204.29 16.8559 204.328 16.8559 204.364 16.8572ZM192.037 19.4193C192.279 19.4594 192.457 19.5645 192.538 19.716C192.618 19.8675 192.597 20.0555 192.478 20.2469L187.191 29.6414C187.153 29.7576 187.078 29.8767 186.969 29.9903C186.861 30.104 186.723 30.2094 186.564 30.2994C186.406 30.3894 186.231 30.4616 186.052 30.5112C185.872 30.5608 185.693 30.5865 185.526 30.5865C185.359 30.5865 185.209 30.5608 185.085 30.5112C184.961 30.4616 184.868 30.3894 184.811 30.2994C184.753 30.2094 184.734 30.104 184.754 29.9903C184.773 29.8767 184.832 29.7576 184.925 29.6414L190.212 20.2469C190.272 20.133 190.366 20.0198 190.487 19.9146C190.609 19.8095 190.755 19.7149 190.916 19.6368C191.078 19.5587 191.251 19.499 191.424 19.4615C191.598 19.4241 191.768 19.4097 191.923 19.4193C191.962 19.4179 191.999 19.4179 192.037 19.4193ZM206.07 20.2733C206.313 20.3135 206.49 20.4186 206.571 20.57C206.652 20.7215 206.631 20.9095 206.512 21.1009L202.186 28.7873C202.148 28.9036 202.072 29.0227 201.964 29.1363C201.856 29.2499 201.718 29.3554 201.559 29.4454C201.401 29.5353 201.226 29.6076 201.046 29.6572C200.867 29.7067 200.688 29.7324 200.521 29.7324C200.354 29.7324 200.203 29.7067 200.08 29.6572C199.956 29.6076 199.863 29.5353 199.805 29.4454C199.748 29.3554 199.729 29.2499 199.748 29.1363C199.768 29.0227 199.826 28.9036 199.919 28.7873L204.245 21.1009C204.305 20.987 204.399 20.8738 204.521 20.7687C204.642 20.6636 204.788 20.5689 204.95 20.4908C205.111 20.4128 205.284 20.3531 205.458 20.3156C205.631 20.2781 205.801 20.2637 205.957 20.2733C205.996 20.272 206.033 20.272 206.07 20.2733ZM198.333 21.1274C198.575 21.1675 198.753 21.2726 198.833 21.4241C198.914 21.5755 198.893 21.7636 198.774 21.9549L195.41 27.9333C195.372 28.0495 195.296 28.1686 195.188 28.2823C195.079 28.3959 194.941 28.5014 194.783 28.5913C194.624 28.6813 194.449 28.7535 194.27 28.8031C194.091 28.8527 193.911 28.8784 193.744 28.8784C193.577 28.8784 193.427 28.8527 193.303 28.8031C193.18 28.7535 193.086 28.6813 193.029 28.5913C192.972 28.5014 192.952 28.3959 192.972 28.2823C192.992 28.1686 193.05 28.0495 193.143 27.9333L196.507 21.9549C196.568 21.841 196.662 21.7279 196.783 21.6227C196.904 21.5176 197.051 21.423 197.212 21.3449C197.374 21.2668 197.547 21.2071 197.72 21.1696C197.894 21.1321 198.064 21.1178 198.219 21.1274C198.258 21.126 198.295 21.126 198.333 21.1274ZM183.818 21.1274C184.061 21.1675 184.238 21.2726 184.319 21.4241C184.4 21.5755 184.379 21.7636 184.26 21.9549L180.895 27.9333C180.857 28.0494 180.781 28.1682 180.673 28.2816C180.564 28.3949 180.426 28.5001 180.268 28.5897C180.109 28.6794 179.935 28.7514 179.756 28.8008C179.577 28.8502 179.398 28.8758 179.231 28.8758C179.064 28.8758 178.914 28.8502 178.791 28.8008C178.667 28.7514 178.574 28.6794 178.516 28.5897C178.459 28.5001 178.439 28.3949 178.458 28.2816C178.478 28.1682 178.535 28.0494 178.628 27.9333L181.992 21.9549C182.052 21.8409 182.146 21.7275 182.268 21.6223C182.39 21.5171 182.536 21.4223 182.698 21.3442C182.86 21.2661 183.033 21.2064 183.207 21.1691C183.38 21.1317 183.551 21.1175 183.706 21.1274C183.744 21.1261 183.782 21.1261 183.818 21.1274ZM208.257 22.8355C208.5 22.8756 208.677 22.9807 208.758 23.1322C208.839 23.2836 208.817 23.4717 208.698 23.663L207.256 26.2252C207.218 26.3413 207.142 26.4601 207.034 26.5735C206.925 26.6868 206.787 26.792 206.629 26.8816C206.47 26.9713 206.296 27.0433 206.117 27.0927C205.938 27.1421 205.759 27.1677 205.592 27.1677C205.425 27.1677 205.275 27.1421 205.152 27.0927C205.028 27.0433 204.935 26.9713 204.877 26.8816C204.82 26.792 204.8 26.6868 204.819 26.5735C204.839 26.4601 204.896 26.3413 204.989 26.2252L206.43 23.663C206.491 23.549 206.585 23.4356 206.707 23.3304C206.828 23.2251 206.975 23.1304 207.136 23.0523C207.298 22.9742 207.472 22.9145 207.645 22.8772C207.819 22.8398 207.989 22.8256 208.144 22.8355C208.183 22.8341 208.22 22.8341 208.257 22.8355ZM193.743 22.8355C193.985 22.8756 194.163 22.9807 194.244 23.1322C194.324 23.2836 194.303 23.4717 194.184 23.663L192.742 26.2252C192.704 26.3414 192.629 26.4605 192.52 26.5742C192.412 26.6878 192.274 26.7933 192.116 26.8832C191.957 26.9732 191.782 27.0455 191.603 27.095C191.423 27.1446 191.244 27.1703 191.077 27.1703C190.91 27.1703 190.76 27.1446 190.636 27.095C190.513 27.0455 190.419 26.9732 190.362 26.8832C190.304 26.7933 190.285 26.6878 190.305 26.5742C190.324 26.4605 190.383 26.3414 190.476 26.2252L191.918 23.663C191.978 23.5491 192.072 23.4359 192.193 23.3308C192.315 23.2257 192.461 23.131 192.622 23.053C192.784 22.9749 192.957 22.9152 193.13 22.8777C193.304 22.8402 193.474 22.8258 193.629 22.8355C193.668 22.8341 193.705 22.8341 193.743 22.8355ZM179.229 22.8355C179.471 22.8756 179.649 22.9807 179.729 23.1322C179.81 23.2836 179.789 23.4717 179.67 23.663L178.228 26.2252C178.19 26.3413 178.114 26.4601 178.005 26.5735C177.897 26.6868 177.759 26.792 177.6 26.8816C177.442 26.9713 177.267 27.0433 177.088 27.0927C176.909 27.1421 176.73 27.1677 176.564 27.1677C176.397 27.1677 176.247 27.1421 176.124 27.0927C176 27.0433 175.906 26.9713 175.849 26.8816C175.792 26.792 175.772 26.6868 175.791 26.5735C175.81 26.4601 175.868 26.3413 175.96 26.2252L177.402 23.663C177.463 23.549 177.557 23.4356 177.678 23.3304C177.8 23.2251 177.946 23.1304 178.108 23.0523C178.27 22.9742 178.443 22.9145 178.617 22.8772C178.791 22.8398 178.961 22.8256 179.116 22.8355C179.154 22.8342 179.192 22.8342 179.229 22.8355Z" fill="#333333"/>
</svg>
