<svg width="400" height="36" viewBox="0 0 400 36" fill="none" xmlns="http://www.w3.org/2000/svg">
<path d="M11.2896 32.8812C9.17453 32.8812 7.2792 32.5378 5.60361 31.8511C3.92802 31.1644 2.58205 30.148 1.56571 28.8021C0.576842 27.4561 0.0549373 25.8355 0 23.9401H7.49894C7.60882 25.0114 7.97965 25.8355 8.61142 26.4123C9.2432 26.9617 10.0673 27.2364 11.0836 27.2364C12.1274 27.2364 12.9515 27.0029 13.5558 26.5359C14.1601 26.0415 14.4622 25.3685 14.4622 24.517C14.4622 23.8028 14.215 23.2122 13.7206 22.7452C13.2536 22.2783 12.6631 21.8937 11.9489 21.5916C11.2622 21.2894 10.2733 20.946 8.98225 20.5615C7.11438 19.9846 5.58987 19.4078 4.40872 18.831C3.22757 18.2541 2.21123 17.4026 1.3597 16.2764C0.50817 15.1502 0.0824059 13.6806 0.0824059 11.8676C0.0824059 9.17572 1.05754 7.07437 3.00782 5.56359C4.95809 4.02535 7.49894 3.25622 10.6304 3.25622C13.8167 3.25622 16.3851 4.02535 18.3353 5.56359C20.2856 7.07437 21.3294 9.18945 21.4668 11.9089H13.8442C13.7893 10.9749 13.4459 10.247 12.8141 9.72509C12.1824 9.17572 11.372 8.90103 10.3832 8.90103C9.53162 8.90103 8.84491 9.13452 8.323 9.60148C7.8011 10.041 7.54015 10.6865 7.54015 11.538C7.54015 12.472 7.97965 13.1999 8.85864 13.7218C9.73764 14.2437 11.1111 14.8068 12.9789 15.4111C14.8468 16.0429 16.3576 16.6472 17.5113 17.224C18.6924 17.8009 19.7088 18.6387 20.5603 19.7374C21.4118 20.8362 21.8376 22.2508 21.8376 23.9813C21.8376 25.6294 21.4118 27.1265 20.5603 28.4725C19.7362 29.8184 18.5276 30.8897 16.9344 31.6863C15.3412 32.4829 13.4596 32.8812 11.2896 32.8812Z" fill="white"/>
<path d="M42.8196 32.9224C40.5671 32.9224 38.5345 32.4417 36.7215 31.4803C34.9361 30.5189 33.5214 29.1454 32.4776 27.36C31.4613 25.5745 30.9531 23.4869 30.9531 21.0971C30.9531 18.7348 31.475 16.6609 32.5188 14.8755C33.5626 13.0625 34.991 11.6754 36.8039 10.714C38.6169 9.75256 40.6495 9.27186 42.902 9.27186C45.1544 9.27186 47.1871 9.75256 49 10.714C50.8129 11.6754 52.2413 13.0625 53.2851 14.8755C54.3289 16.6609 54.8508 18.7348 54.8508 21.0971C54.8508 23.4594 54.3152 25.547 53.2439 27.36C52.2001 29.1454 50.758 30.5189 48.9176 31.4803C47.1047 32.4417 45.072 32.9224 42.8196 32.9224ZM42.8196 26.8243C44.1655 26.8243 45.3055 26.3299 46.2394 25.341C47.2008 24.3522 47.6815 22.9375 47.6815 21.0971C47.6815 19.2567 47.2146 17.8421 46.2806 16.8532C45.3742 15.8643 44.2479 15.3699 42.902 15.3699C41.5285 15.3699 40.3886 15.8643 39.4821 16.8532C38.5757 17.8146 38.1224 19.2292 38.1224 21.0971C38.1224 22.9375 38.5619 24.3522 39.4409 25.341C40.3474 26.3299 41.4736 26.8243 42.8196 26.8243Z" fill="white"/>
<path d="M87.472 9.60148V32.5928H80.4263V29.4613C79.7121 30.4777 78.737 31.3017 77.5009 31.9335C76.2923 32.5378 74.9463 32.84 73.463 32.84C71.705 32.84 70.153 32.4554 68.8071 31.6863C67.4611 30.8897 66.4173 29.7497 65.6756 28.2664C64.934 26.7831 64.5632 25.0389 64.5632 23.0337V9.60148H71.5677V22.086C71.5677 23.6242 71.966 24.8191 72.7626 25.6707C73.5591 26.5222 74.6304 26.9479 75.9764 26.9479C77.3498 26.9479 78.4348 26.5222 79.2314 25.6707C80.028 24.8191 80.4263 23.6242 80.4263 22.086V9.60148H87.472Z" fill="white"/>
<path d="M112.722 9.35427C115.414 9.35427 117.557 10.2333 119.15 11.9913C120.771 13.7218 121.581 16.1116 121.581 19.1606V32.5928H114.576V20.1082C114.576 18.57 114.178 17.3751 113.382 16.5236C112.585 15.6721 111.514 15.2463 110.168 15.2463C108.822 15.2463 107.751 15.6721 106.954 16.5236C106.157 17.3751 105.759 18.57 105.759 20.1082V32.5928H98.7133V9.60148H105.759V12.6505C106.473 11.6342 107.435 10.8376 108.643 10.2607C109.852 9.65642 111.212 9.35427 112.722 9.35427Z" fill="white"/>
<path d="M131.257 21.0559C131.257 18.6936 131.696 16.6197 132.575 14.8343C133.482 13.0488 134.704 11.6754 136.242 10.714C137.78 9.75256 139.497 9.27186 141.393 9.27186C142.903 9.27186 144.277 9.58775 145.513 10.2195C146.776 10.8513 147.765 11.7028 148.479 12.7741V2.10254H155.525V32.5928H148.479V29.2965C147.82 30.3953 146.873 31.2743 145.636 31.9335C144.428 32.5928 143.013 32.9224 141.393 32.9224C139.497 32.9224 137.78 32.4417 136.242 31.4803C134.704 30.4914 133.482 29.1042 132.575 27.3188C131.696 25.5058 131.257 23.4182 131.257 21.0559ZM148.479 21.0971C148.479 19.3391 147.985 17.952 146.996 16.9356C146.035 15.9193 144.854 15.4111 143.453 15.4111C142.052 15.4111 140.857 15.9193 139.868 16.9356C138.907 17.9245 138.426 19.2979 138.426 21.0559C138.426 22.8139 138.907 24.2148 139.868 25.2586C140.857 26.275 142.052 26.7831 143.453 26.7831C144.854 26.7831 146.035 26.275 146.996 25.2586C147.985 24.2423 148.479 22.8551 148.479 21.0971Z" fill="white"/>
<path d="M235.573 32.8811C233.458 32.8811 231.563 32.5378 229.887 31.851C228.211 31.1643 226.866 30.148 225.849 28.802C224.86 27.4561 224.338 25.8354 224.283 23.9401H231.782C231.892 25.0113 232.263 25.8354 232.895 26.4122C233.527 26.9616 234.351 27.2363 235.367 27.2363C236.411 27.2363 237.235 27.0028 237.839 26.5359C238.444 26.0414 238.746 25.3684 238.746 24.5169C238.746 23.8027 238.499 23.2121 238.004 22.7452C237.537 22.2782 236.947 21.8937 236.232 21.5915C235.546 21.2893 234.557 20.946 233.266 20.5614C231.398 19.9846 229.873 19.4077 228.692 18.8309C227.511 18.2541 226.495 17.4025 225.643 16.2763C224.792 15.1501 224.366 13.6805 224.366 11.8676C224.366 9.17566 225.341 7.07431 227.291 5.56353C229.242 4.02529 231.782 3.25616 234.914 3.25616C238.1 3.25616 240.669 4.02529 242.619 5.56353C244.569 7.07431 245.613 9.1894 245.75 11.9088H238.128C238.073 10.9749 237.729 10.2469 237.098 9.72504C236.466 9.17566 235.656 8.90097 234.667 8.90097C233.815 8.90097 233.128 9.13446 232.606 9.60143C232.085 10.0409 231.824 10.6864 231.824 11.538C231.824 12.4719 232.263 13.1998 233.142 13.7217C234.021 14.2436 235.395 14.8067 237.262 15.411C239.13 16.0428 240.641 16.6471 241.795 17.224C242.976 17.8008 243.992 18.6386 244.844 19.7374C245.695 20.8361 246.121 22.2507 246.121 23.9813C246.121 25.6294 245.695 27.1264 244.844 28.4724C244.02 29.8184 242.811 30.8896 241.218 31.6862C239.625 32.4828 237.743 32.8811 235.573 32.8811Z" fill="white"/>
<path d="M267.103 32.9223C264.851 32.9223 262.818 32.4416 261.005 31.4802C259.22 30.5188 257.805 29.1454 256.761 27.3599C255.745 25.5745 255.237 23.4868 255.237 21.0971C255.237 18.7348 255.758 16.6609 256.802 14.8754C257.846 13.0625 259.274 11.6753 261.087 10.7139C262.9 9.7525 264.933 9.2718 267.185 9.2718C269.438 9.2718 271.471 9.7525 273.283 10.7139C275.096 11.6753 276.525 13.0625 277.569 14.8754C278.612 16.6609 279.134 18.7348 279.134 21.0971C279.134 23.4594 278.599 25.547 277.527 27.3599C276.484 29.1454 275.041 30.5188 273.201 31.4802C271.388 32.4416 269.355 32.9223 267.103 32.9223ZM267.103 26.8243C268.449 26.8243 269.589 26.3298 270.523 25.341C271.484 24.3521 271.965 22.9375 271.965 21.0971C271.965 19.2567 271.498 17.842 270.564 16.8532C269.658 15.8643 268.531 15.3698 267.185 15.3698C265.812 15.3698 264.672 15.8643 263.766 16.8532C262.859 17.8146 262.406 19.2292 262.406 21.0971C262.406 22.9375 262.845 24.3521 263.724 25.341C264.631 26.3298 265.757 26.8243 267.103 26.8243Z" fill="white"/>
<path d="M311.756 9.60143V32.5927H304.71V29.4613C303.996 30.4776 303.02 31.3017 301.784 31.9334C300.576 32.5378 299.23 32.8399 297.746 32.8399C295.988 32.8399 294.437 32.4554 293.091 31.6862C291.745 30.8896 290.701 29.7497 289.959 28.2664C289.217 26.7831 288.847 25.0388 288.847 23.0336V9.60143H295.851V22.0859C295.851 23.6242 296.249 24.8191 297.046 25.6706C297.843 26.5221 298.914 26.9479 300.26 26.9479C301.633 26.9479 302.718 26.5221 303.515 25.6706C304.311 24.8191 304.71 23.6242 304.71 22.0859V9.60143H311.756Z" fill="white"/>
<path d="M330.043 13.4333C330.867 12.1697 331.897 11.1809 333.133 10.4667C334.369 9.72503 335.742 9.35421 337.253 9.35421V16.8119H335.317C333.559 16.8119 332.24 17.1965 331.361 17.9656C330.482 18.7073 330.043 20.0258 330.043 21.9211V32.5927H322.997V9.60143H330.043V13.4333Z" fill="white"/>
<path d="M345.4 21.0971C345.4 18.7073 345.881 16.6197 346.842 14.8342C347.831 13.0487 349.191 11.6753 350.922 10.7139C352.68 9.7525 354.685 9.2718 356.937 9.2718C359.821 9.2718 362.225 10.0272 364.148 11.538C366.098 13.0487 367.375 15.1776 367.98 17.9244H360.481C359.849 16.1664 358.626 15.2874 356.814 15.2874C355.523 15.2874 354.492 15.7956 353.723 16.8119C352.954 17.8008 352.57 19.2292 352.57 21.0971C352.57 22.9649 352.954 24.407 353.723 25.4234C354.492 26.4122 355.523 26.9067 356.814 26.9067C358.626 26.9067 359.849 26.0277 360.481 24.2697H367.98C367.375 26.9616 366.098 29.0767 364.148 30.615C362.197 32.1532 359.794 32.9223 356.937 32.9223C354.685 32.9223 352.68 32.4416 350.922 31.4802C349.191 30.5188 347.831 29.1454 346.842 27.3599C345.881 25.5745 345.4 23.4868 345.4 21.0971Z" fill="white"/>
<path d="M399.602 20.7262C399.602 21.3855 399.56 22.0722 399.478 22.7864H383.532C383.642 24.2148 384.096 25.3135 384.892 26.0826C385.716 26.8243 386.719 27.1951 387.9 27.1951C389.658 27.1951 390.88 26.4534 391.567 24.9701H399.066C398.681 26.4809 397.981 27.8406 396.965 29.0492C395.976 30.2579 394.726 31.2055 393.215 31.8922C391.704 32.579 390.015 32.9223 388.147 32.9223C385.895 32.9223 383.889 32.4416 382.131 31.4802C380.373 30.5188 379 29.1454 378.011 27.3599C377.022 25.5745 376.528 23.4868 376.528 21.0971C376.528 18.7073 377.009 16.6197 377.97 14.8342C378.959 13.0487 380.332 11.6753 382.09 10.7139C383.848 9.7525 385.867 9.2718 388.147 9.2718C390.372 9.2718 392.35 9.73877 394.08 10.6727C395.811 11.6066 397.157 12.9389 398.118 14.6694C399.107 16.3999 399.602 18.4189 399.602 20.7262ZM392.391 18.8721C392.391 17.6635 391.979 16.7021 391.155 15.9879C390.331 15.2737 389.301 14.9166 388.065 14.9166C386.884 14.9166 385.881 15.26 385.057 15.9467C384.26 16.6334 383.766 17.6085 383.574 18.8721H392.391Z" fill="white"/>
<path d="M214.788 14.2683H208.861V8.03415C208.861 7.0628 208.076 6.27805 207.105 6.27805H189.819L183.381 0.120732C183.299 0.0440547 183.192 0.000961993 183.08 0H169.13C168.158 0 167.373 0.784756 167.373 1.7561V34.2439C167.373 35.2152 168.158 36 169.13 36H207.434C208.148 36 208.795 35.5665 209.064 34.9024L216.418 16.6829C216.5 16.4744 216.544 16.2494 216.544 16.0244C216.544 15.053 215.759 14.2683 214.788 14.2683ZM204.91 14.2683H176.922C176.209 14.2683 175.561 14.7018 175.292 15.3659L171.325 25.2V3.95122H181.669L188.233 10.2293H204.91V14.2683Z" fill="white"/>
<path d="M190.015 16.0031C190.258 16.0433 190.435 16.1484 190.516 16.2998C190.597 16.4513 190.575 16.6393 190.456 16.8307L181.324 33.0575C181.286 33.1736 181.21 33.2925 181.101 33.4058C180.993 33.5192 180.855 33.6243 180.697 33.714C180.538 33.8037 180.363 33.8757 180.184 33.9251C180.005 33.9745 179.826 34.0001 179.66 34.0001C179.493 34.0001 179.343 33.9745 179.22 33.9251C179.096 33.8757 179.002 33.8037 178.945 33.714C178.888 33.6243 178.868 33.5192 178.887 33.4058C178.906 33.2925 178.964 33.1736 179.056 33.0575L188.188 16.8307C188.249 16.7166 188.343 16.6033 188.465 16.498C188.586 16.3928 188.733 16.298 188.894 16.2199C189.056 16.1418 189.23 16.0822 189.403 16.0448C189.577 16.0074 189.747 15.9932 189.902 16.0031C189.941 16.0018 189.978 16.0018 190.015 16.0031ZM204.048 16.8572C204.291 16.8973 204.468 17.0024 204.549 17.1539C204.63 17.3053 204.609 17.4934 204.49 17.6847L196.319 32.2035C196.281 32.3196 196.205 32.4384 196.096 32.5518C195.988 32.6651 195.85 32.7703 195.691 32.86C195.533 32.9496 195.358 33.0216 195.179 33.071C195 33.1204 194.821 33.146 194.655 33.146C194.488 33.146 194.338 33.1204 194.214 33.071C194.091 33.0216 193.997 32.9496 193.94 32.86C193.882 32.7703 193.863 32.6651 193.882 32.5518C193.901 32.4384 193.959 32.3196 194.051 32.2035L202.222 17.6847C202.282 17.5707 202.376 17.4573 202.498 17.3521C202.62 17.2468 202.766 17.1521 202.928 17.074C203.09 16.9959 203.263 16.9362 203.437 16.8988C203.61 16.8615 203.781 16.8473 203.936 16.8572C203.974 16.8559 204.012 16.8559 204.048 16.8572ZM191.721 19.4193C191.964 19.4594 192.141 19.5645 192.222 19.716C192.302 19.8675 192.281 20.0555 192.162 20.2469L186.875 29.6414C186.837 29.7576 186.762 29.8767 186.653 29.9903C186.545 30.104 186.407 30.2094 186.249 30.2994C186.09 30.3894 185.915 30.4616 185.736 30.5112C185.556 30.5608 185.377 30.5865 185.21 30.5865C185.043 30.5865 184.893 30.5608 184.769 30.5112C184.646 30.4616 184.552 30.3894 184.495 30.2994C184.437 30.2094 184.418 30.104 184.438 29.9903C184.457 29.8767 184.516 29.7576 184.609 29.6414L189.896 20.2469C189.956 20.133 190.05 20.0198 190.171 19.9146C190.293 19.8095 190.439 19.7149 190.6 19.6368C190.762 19.5587 190.935 19.499 191.108 19.4615C191.282 19.4241 191.452 19.4097 191.607 19.4193C191.646 19.4179 191.683 19.4179 191.721 19.4193ZM205.754 20.2733C205.997 20.3135 206.174 20.4186 206.255 20.57C206.336 20.7215 206.315 20.9095 206.196 21.1009L201.87 28.7873C201.832 28.9036 201.756 29.0227 201.648 29.1363C201.54 29.2499 201.402 29.3554 201.243 29.4454C201.085 29.5353 200.91 29.6076 200.73 29.6572C200.551 29.7067 200.372 29.7324 200.205 29.7324C200.038 29.7324 199.887 29.7067 199.764 29.6572C199.64 29.6076 199.547 29.5353 199.489 29.4454C199.432 29.3554 199.413 29.2499 199.432 29.1363C199.452 29.0227 199.51 28.9036 199.603 28.7873L203.929 21.1009C203.989 20.987 204.083 20.8738 204.205 20.7687C204.326 20.6636 204.472 20.5689 204.634 20.4908C204.795 20.4128 204.968 20.3531 205.142 20.3156C205.315 20.2781 205.485 20.2637 205.641 20.2733C205.68 20.272 205.717 20.272 205.754 20.2733ZM198.017 21.1274C198.259 21.1675 198.437 21.2726 198.517 21.4241C198.598 21.5755 198.577 21.7636 198.458 21.9549L195.094 27.9333C195.056 28.0495 194.98 28.1686 194.872 28.2823C194.764 28.3959 194.625 28.5014 194.467 28.5913C194.308 28.6813 194.133 28.7535 193.954 28.8031C193.775 28.8527 193.595 28.8784 193.428 28.8784C193.261 28.8784 193.111 28.8527 192.987 28.8031C192.864 28.7535 192.77 28.6813 192.713 28.5913C192.656 28.5014 192.636 28.3959 192.656 28.2823C192.676 28.1686 192.734 28.0495 192.827 27.9333L196.191 21.9549C196.252 21.841 196.346 21.7279 196.467 21.6227C196.589 21.5176 196.735 21.423 196.896 21.3449C197.058 21.2668 197.231 21.2071 197.404 21.1696C197.578 21.1321 197.748 21.1178 197.903 21.1274C197.942 21.126 197.979 21.126 198.017 21.1274ZM183.503 21.1274C183.745 21.1675 183.923 21.2726 184.003 21.4241C184.084 21.5755 184.063 21.7636 183.944 21.9549L180.579 27.9333C180.541 28.0494 180.465 28.1682 180.357 28.2816C180.248 28.3949 180.11 28.5001 179.952 28.5897C179.793 28.6794 179.619 28.7514 179.44 28.8008C179.261 28.8502 179.082 28.8758 178.915 28.8758C178.748 28.8758 178.598 28.8502 178.475 28.8008C178.351 28.7514 178.258 28.6794 178.2 28.5897C178.143 28.5001 178.123 28.3949 178.142 28.2816C178.162 28.1682 178.219 28.0494 178.312 27.9333L181.676 21.9549C181.736 21.8409 181.831 21.7275 181.952 21.6223C182.074 21.5171 182.22 21.4223 182.382 21.3442C182.544 21.2661 182.717 21.2064 182.891 21.1691C183.065 21.1317 183.235 21.1175 183.39 21.1274C183.428 21.1261 183.466 21.1261 183.503 21.1274ZM207.941 22.8355C208.184 22.8756 208.361 22.9807 208.442 23.1322C208.523 23.2836 208.502 23.4717 208.382 23.663L206.94 26.2252C206.902 26.3413 206.826 26.4601 206.718 26.5735C206.609 26.6868 206.471 26.792 206.313 26.8816C206.155 26.9713 205.98 27.0433 205.801 27.0927C205.622 27.1421 205.443 27.1677 205.276 27.1677C205.11 27.1677 204.959 27.1421 204.836 27.0927C204.712 27.0433 204.619 26.9713 204.561 26.8816C204.504 26.792 204.484 26.6868 204.503 26.5735C204.523 26.4601 204.58 26.3413 204.673 26.2252L206.115 23.663C206.175 23.549 206.269 23.4356 206.391 23.3304C206.512 23.2251 206.659 23.1304 206.82 23.0523C206.982 22.9742 207.156 22.9145 207.329 22.8772C207.503 22.8398 207.673 22.8256 207.829 22.8355C207.867 22.8341 207.904 22.8341 207.941 22.8355ZM193.427 22.8355C193.669 22.8756 193.847 22.9807 193.928 23.1322C194.008 23.2836 193.987 23.4717 193.868 23.663L192.426 26.2252C192.388 26.3414 192.313 26.4605 192.205 26.5742C192.096 26.6878 191.958 26.7933 191.8 26.8832C191.641 26.9732 191.466 27.0455 191.287 27.095C191.107 27.1446 190.928 27.1703 190.761 27.1703C190.594 27.1703 190.444 27.1446 190.32 27.095C190.197 27.0455 190.103 26.9732 190.046 26.8832C189.989 26.7933 189.969 26.6878 189.989 26.5742C190.008 26.4605 190.067 26.3414 190.16 26.2252L191.602 23.663C191.662 23.5491 191.756 23.4359 191.877 23.3308C191.999 23.2257 192.145 23.131 192.306 23.053C192.468 22.9749 192.641 22.9152 192.814 22.8777C192.988 22.8402 193.158 22.8258 193.313 22.8355C193.352 22.8341 193.389 22.8341 193.427 22.8355ZM178.913 22.8355C179.155 22.8756 179.333 22.9807 179.414 23.1322C179.494 23.2836 179.473 23.4717 179.354 23.663L177.912 26.2252C177.874 26.3413 177.798 26.4601 177.689 26.5735C177.581 26.6868 177.443 26.792 177.285 26.8816C177.126 26.9713 176.952 27.0433 176.772 27.0927C176.593 27.1421 176.414 27.1677 176.248 27.1677C176.081 27.1677 175.931 27.1421 175.808 27.0927C175.684 27.0433 175.591 26.9713 175.533 26.8816C175.476 26.792 175.456 26.6868 175.475 26.5735C175.494 26.4601 175.552 26.3413 175.644 26.2252L177.086 23.663C177.147 23.549 177.241 23.4356 177.362 23.3304C177.484 23.2251 177.63 23.1304 177.792 23.0523C177.954 22.9742 178.127 22.9145 178.301 22.8772C178.475 22.8398 178.645 22.8256 178.8 22.8355C178.838 22.8342 178.876 22.8342 178.913 22.8355Z" fill="#FFC744"/>
</svg>
